<mxfile host="app.diagrams.net" modified="2021-06-04T02:30:43.209Z" agent="5.0 (Windows NT 10.0; Win64; x64) AppleWebKit/537.36 (KHTML, like Gecko) Chrome/90.0.4430.72 Safari/537.36" etag="Z6Yt3M8eFeu03VrgQGBY" version="14.6.13" type="github">
  <diagram id="8wsao6ExWeQB9zk3V1ca" name="第 1 页">
    <mxGraphModel dx="2017" dy="355" grid="1" gridSize="10" guides="1" tooltips="1" connect="1" arrows="1" fold="1" page="1" pageScale="1" pageWidth="827" pageHeight="1169" math="0" shadow="0">
      <root>
        <mxCell id="0" />
        <mxCell id="1" parent="0" />
        <mxCell id="MU57wk5VXZtFuzJeOMo_-1" value="V3Graph" style="swimlane;fontStyle=1;align=center;verticalAlign=top;childLayout=stackLayout;horizontal=1;startSize=26;horizontalStack=0;resizeParent=1;resizeParentMax=0;resizeLast=0;collapsible=1;marginBottom=0;" vertex="1" parent="1">
          <mxGeometry x="1171" y="1330" width="230" height="86" as="geometry" />
        </mxCell>
        <mxCell id="MU57wk5VXZtFuzJeOMo_-2" value="- m_vertices: V3List&lt;V3GraphVertex*&gt;" style="text;strokeColor=none;fillColor=none;align=left;verticalAlign=top;spacingLeft=4;spacingRight=4;overflow=hidden;rotatable=0;points=[[0,0.5],[1,0.5]];portConstraint=eastwest;" vertex="1" parent="MU57wk5VXZtFuzJeOMo_-1">
          <mxGeometry y="26" width="230" height="26" as="geometry" />
        </mxCell>
        <mxCell id="MU57wk5VXZtFuzJeOMo_-3" value="" style="line;strokeWidth=1;fillColor=none;align=left;verticalAlign=middle;spacingTop=-1;spacingLeft=3;spacingRight=3;rotatable=0;labelPosition=right;points=[];portConstraint=eastwest;" vertex="1" parent="MU57wk5VXZtFuzJeOMo_-1">
          <mxGeometry y="52" width="230" height="8" as="geometry" />
        </mxCell>
        <mxCell id="MU57wk5VXZtFuzJeOMo_-4" value="+ method(type): type" style="text;strokeColor=none;fillColor=none;align=left;verticalAlign=top;spacingLeft=4;spacingRight=4;overflow=hidden;rotatable=0;points=[[0,0.5],[1,0.5]];portConstraint=eastwest;" vertex="1" parent="MU57wk5VXZtFuzJeOMo_-1">
          <mxGeometry y="60" width="230" height="26" as="geometry" />
        </mxCell>
        <mxCell id="MU57wk5VXZtFuzJeOMo_-5" value="V3GraphVertex" style="swimlane;fontStyle=1;align=center;verticalAlign=top;childLayout=stackLayout;horizontal=1;startSize=26;horizontalStack=0;resizeParent=1;resizeParentMax=0;resizeLast=0;collapsible=1;marginBottom=0;" vertex="1" parent="1">
          <mxGeometry x="991" y="1460" width="200" height="268" as="geometry" />
        </mxCell>
        <mxCell id="MU57wk5VXZtFuzJeOMo_-6" value="- m_outs: V3List&lt;V3GraphEdge*&gt;" style="text;strokeColor=none;fillColor=none;align=left;verticalAlign=top;spacingLeft=4;spacingRight=4;overflow=hidden;rotatable=0;points=[[0,0.5],[1,0.5]];portConstraint=eastwest;" vertex="1" parent="MU57wk5VXZtFuzJeOMo_-5">
          <mxGeometry y="26" width="200" height="26" as="geometry" />
        </mxCell>
        <mxCell id="MU57wk5VXZtFuzJeOMo_-7" value="- m_ins: V3List&lt;V3GraphEdge*&gt;" style="text;strokeColor=none;fillColor=none;align=left;verticalAlign=top;spacingLeft=4;spacingRight=4;overflow=hidden;rotatable=0;points=[[0,0.5],[1,0.5]];portConstraint=eastwest;" vertex="1" parent="MU57wk5VXZtFuzJeOMo_-5">
          <mxGeometry y="52" width="200" height="26" as="geometry" />
        </mxCell>
        <mxCell id="MU57wk5VXZtFuzJeOMo_-8" value="" style="line;strokeWidth=1;fillColor=none;align=left;verticalAlign=middle;spacingTop=-1;spacingLeft=3;spacingRight=3;rotatable=0;labelPosition=right;points=[];portConstraint=eastwest;" vertex="1" parent="MU57wk5VXZtFuzJeOMo_-5">
          <mxGeometry y="78" width="200" height="8" as="geometry" />
        </mxCell>
        <mxCell id="MU57wk5VXZtFuzJeOMo_-9" value="+ fanout(): double" style="text;strokeColor=none;fillColor=none;align=left;verticalAlign=top;spacingLeft=4;spacingRight=4;overflow=hidden;rotatable=0;points=[[0,0.5],[1,0.5]];portConstraint=eastwest;" vertex="1" parent="MU57wk5VXZtFuzJeOMo_-5">
          <mxGeometry y="86" width="200" height="26" as="geometry" />
        </mxCell>
        <mxCell id="MU57wk5VXZtFuzJeOMo_-10" value="+ color(): uint32_t" style="text;strokeColor=none;fillColor=none;align=left;verticalAlign=top;spacingLeft=4;spacingRight=4;overflow=hidden;rotatable=0;points=[[0,0.5],[1,0.5]];portConstraint=eastwest;" vertex="1" parent="MU57wk5VXZtFuzJeOMo_-5">
          <mxGeometry y="112" width="200" height="26" as="geometry" />
        </mxCell>
        <mxCell id="MU57wk5VXZtFuzJeOMo_-11" value="+ rank(): uint32_t" style="text;strokeColor=none;fillColor=none;align=left;verticalAlign=top;spacingLeft=4;spacingRight=4;overflow=hidden;rotatable=0;points=[[0,0.5],[1,0.5]];portConstraint=eastwest;" vertex="1" parent="MU57wk5VXZtFuzJeOMo_-5">
          <mxGeometry y="138" width="200" height="26" as="geometry" />
        </mxCell>
        <mxCell id="MU57wk5VXZtFuzJeOMo_-12" value="+ user(): uint32_t" style="text;strokeColor=none;fillColor=none;align=left;verticalAlign=top;spacingLeft=4;spacingRight=4;overflow=hidden;rotatable=0;points=[[0,0.5],[1,0.5]];portConstraint=eastwest;" vertex="1" parent="MU57wk5VXZtFuzJeOMo_-5">
          <mxGeometry y="164" width="200" height="26" as="geometry" />
        </mxCell>
        <mxCell id="MU57wk5VXZtFuzJeOMo_-13" value="+ userp(): void*" style="text;strokeColor=none;fillColor=none;align=left;verticalAlign=top;spacingLeft=4;spacingRight=4;overflow=hidden;rotatable=0;points=[[0,0.5],[1,0.5]];portConstraint=eastwest;" vertex="1" parent="MU57wk5VXZtFuzJeOMo_-5">
          <mxGeometry y="190" width="200" height="26" as="geometry" />
        </mxCell>
        <mxCell id="MU57wk5VXZtFuzJeOMo_-14" value="+ inBeginp(): V3GraphEdge*" style="text;strokeColor=none;fillColor=none;align=left;verticalAlign=top;spacingLeft=4;spacingRight=4;overflow=hidden;rotatable=0;points=[[0,0.5],[1,0.5]];portConstraint=eastwest;" vertex="1" parent="MU57wk5VXZtFuzJeOMo_-5">
          <mxGeometry y="216" width="200" height="26" as="geometry" />
        </mxCell>
        <mxCell id="MU57wk5VXZtFuzJeOMo_-15" value="+ outBeginp(): V3GraphEdge*" style="text;strokeColor=none;fillColor=none;align=left;verticalAlign=top;spacingLeft=4;spacingRight=4;overflow=hidden;rotatable=0;points=[[0,0.5],[1,0.5]];portConstraint=eastwest;" vertex="1" parent="MU57wk5VXZtFuzJeOMo_-5">
          <mxGeometry y="242" width="200" height="26" as="geometry" />
        </mxCell>
        <mxCell id="MU57wk5VXZtFuzJeOMo_-16" value="V3GraphEdge" style="swimlane;fontStyle=1;align=center;verticalAlign=top;childLayout=stackLayout;horizontal=1;startSize=26;horizontalStack=0;resizeParent=1;resizeParentMax=0;resizeLast=0;collapsible=1;marginBottom=0;" vertex="1" parent="1">
          <mxGeometry x="1321" y="1580" width="170" height="242" as="geometry" />
        </mxCell>
        <mxCell id="MU57wk5VXZtFuzJeOMo_-17" value="+ m_fromp: V3GraphVertex*" style="text;strokeColor=none;fillColor=none;align=left;verticalAlign=top;spacingLeft=4;spacingRight=4;overflow=hidden;rotatable=0;points=[[0,0.5],[1,0.5]];portConstraint=eastwest;" vertex="1" parent="MU57wk5VXZtFuzJeOMo_-16">
          <mxGeometry y="26" width="170" height="26" as="geometry" />
        </mxCell>
        <mxCell id="MU57wk5VXZtFuzJeOMo_-18" value="+ m_top: V3GraphVertex*" style="text;strokeColor=none;fillColor=none;align=left;verticalAlign=top;spacingLeft=4;spacingRight=4;overflow=hidden;rotatable=0;points=[[0,0.5],[1,0.5]];portConstraint=eastwest;" vertex="1" parent="MU57wk5VXZtFuzJeOMo_-16">
          <mxGeometry y="52" width="170" height="26" as="geometry" />
        </mxCell>
        <mxCell id="MU57wk5VXZtFuzJeOMo_-19" value="" style="line;strokeWidth=1;fillColor=none;align=left;verticalAlign=middle;spacingTop=-1;spacingLeft=3;spacingRight=3;rotatable=0;labelPosition=right;points=[];portConstraint=eastwest;" vertex="1" parent="MU57wk5VXZtFuzJeOMo_-16">
          <mxGeometry y="78" width="170" height="8" as="geometry" />
        </mxCell>
        <mxCell id="MU57wk5VXZtFuzJeOMo_-20" value="+ inNextp(): V3GraphEdge*" style="text;strokeColor=none;fillColor=none;align=left;verticalAlign=top;spacingLeft=4;spacingRight=4;overflow=hidden;rotatable=0;points=[[0,0.5],[1,0.5]];portConstraint=eastwest;" vertex="1" parent="MU57wk5VXZtFuzJeOMo_-16">
          <mxGeometry y="86" width="170" height="26" as="geometry" />
        </mxCell>
        <mxCell id="MU57wk5VXZtFuzJeOMo_-21" value="+ outNextp(): V3GraphEdge*" style="text;strokeColor=none;fillColor=none;align=left;verticalAlign=top;spacingLeft=4;spacingRight=4;overflow=hidden;rotatable=0;points=[[0,0.5],[1,0.5]];portConstraint=eastwest;" vertex="1" parent="MU57wk5VXZtFuzJeOMo_-16">
          <mxGeometry y="112" width="170" height="26" as="geometry" />
        </mxCell>
        <mxCell id="MU57wk5VXZtFuzJeOMo_-22" value="+ weight(): int" style="text;strokeColor=none;fillColor=none;align=left;verticalAlign=top;spacingLeft=4;spacingRight=4;overflow=hidden;rotatable=0;points=[[0,0.5],[1,0.5]];portConstraint=eastwest;" vertex="1" parent="MU57wk5VXZtFuzJeOMo_-16">
          <mxGeometry y="138" width="170" height="26" as="geometry" />
        </mxCell>
        <mxCell id="MU57wk5VXZtFuzJeOMo_-23" value="+ cutable(): bool" style="text;strokeColor=none;fillColor=none;align=left;verticalAlign=top;spacingLeft=4;spacingRight=4;overflow=hidden;rotatable=0;points=[[0,0.5],[1,0.5]];portConstraint=eastwest;" vertex="1" parent="MU57wk5VXZtFuzJeOMo_-16">
          <mxGeometry y="164" width="170" height="26" as="geometry" />
        </mxCell>
        <mxCell id="MU57wk5VXZtFuzJeOMo_-24" value="+ user(): uint32_t" style="text;strokeColor=none;fillColor=none;align=left;verticalAlign=top;spacingLeft=4;spacingRight=4;overflow=hidden;rotatable=0;points=[[0,0.5],[1,0.5]];portConstraint=eastwest;" vertex="1" parent="MU57wk5VXZtFuzJeOMo_-16">
          <mxGeometry y="190" width="170" height="26" as="geometry" />
        </mxCell>
        <mxCell id="MU57wk5VXZtFuzJeOMo_-25" value="+ userp(): void*" style="text;strokeColor=none;fillColor=none;align=left;verticalAlign=top;spacingLeft=4;spacingRight=4;overflow=hidden;rotatable=0;points=[[0,0.5],[1,0.5]];portConstraint=eastwest;" vertex="1" parent="MU57wk5VXZtFuzJeOMo_-16">
          <mxGeometry y="216" width="170" height="26" as="geometry" />
        </mxCell>
        <mxCell id="MU57wk5VXZtFuzJeOMo_-26" value="1" style="endArrow=open;html=1;endSize=12;startArrow=diamondThin;startSize=14;startFill=0;edgeStyle=orthogonalEdgeStyle;align=left;verticalAlign=bottom;entryX=0.5;entryY=0;entryDx=0;entryDy=0;" edge="1" parent="1" source="MU57wk5VXZtFuzJeOMo_-2" target="MU57wk5VXZtFuzJeOMo_-5">
          <mxGeometry x="-1" y="3" relative="1" as="geometry">
            <mxPoint x="1351" y="1390" as="sourcePoint" />
            <mxPoint x="1511" y="1390" as="targetPoint" />
          </mxGeometry>
        </mxCell>
        <mxCell id="MU57wk5VXZtFuzJeOMo_-27" value="1" style="endArrow=open;html=1;endSize=12;startArrow=diamondThin;startSize=14;startFill=0;edgeStyle=orthogonalEdgeStyle;align=left;verticalAlign=bottom;entryX=0.5;entryY=0;entryDx=0;entryDy=0;exitX=1;exitY=0.5;exitDx=0;exitDy=0;" edge="1" parent="1" source="MU57wk5VXZtFuzJeOMo_-7" target="MU57wk5VXZtFuzJeOMo_-16">
          <mxGeometry x="-1" y="3" relative="1" as="geometry">
            <mxPoint x="1321" y="1630" as="sourcePoint" />
            <mxPoint x="1241" y="1721" as="targetPoint" />
          </mxGeometry>
        </mxCell>
        <mxCell id="MU57wk5VXZtFuzJeOMo_-28" value="1" style="endArrow=open;html=1;endSize=12;startArrow=diamondThin;startSize=14;startFill=0;edgeStyle=orthogonalEdgeStyle;align=left;verticalAlign=bottom;exitX=1;exitY=0.5;exitDx=0;exitDy=0;entryX=0.5;entryY=0;entryDx=0;entryDy=0;" edge="1" parent="1" source="MU57wk5VXZtFuzJeOMo_-6" target="MU57wk5VXZtFuzJeOMo_-16">
          <mxGeometry x="-1" y="3" relative="1" as="geometry">
            <mxPoint x="1201" y="1535" as="sourcePoint" />
            <mxPoint x="1501" y="1540" as="targetPoint" />
          </mxGeometry>
        </mxCell>
        <mxCell id="MU57wk5VXZtFuzJeOMo_-29" value="1" style="endArrow=open;html=1;endSize=12;startArrow=diamondThin;startSize=14;startFill=1;edgeStyle=orthogonalEdgeStyle;align=left;verticalAlign=bottom;exitX=0;exitY=0.5;exitDx=0;exitDy=0;" edge="1" parent="1" source="MU57wk5VXZtFuzJeOMo_-17" target="MU57wk5VXZtFuzJeOMo_-5">
          <mxGeometry x="-1" y="3" relative="1" as="geometry">
            <mxPoint x="1301" y="1930" as="sourcePoint" />
            <mxPoint x="1461" y="1930" as="targetPoint" />
          </mxGeometry>
        </mxCell>
        <mxCell id="MU57wk5VXZtFuzJeOMo_-30" value="1" style="endArrow=open;html=1;endSize=12;startArrow=diamondThin;startSize=14;startFill=1;edgeStyle=orthogonalEdgeStyle;align=left;verticalAlign=bottom;" edge="1" parent="1" source="MU57wk5VXZtFuzJeOMo_-18" target="MU57wk5VXZtFuzJeOMo_-5">
          <mxGeometry x="-1" y="3" relative="1" as="geometry">
            <mxPoint x="1331" y="1845" as="sourcePoint" />
            <mxPoint x="1201" y="1820" as="targetPoint" />
          </mxGeometry>
        </mxCell>
        <mxCell id="MU57wk5VXZtFuzJeOMo_-31" value="GraphAlg &lt;T_Graph=V3Graph&gt;" style="swimlane;fontStyle=1;align=center;verticalAlign=top;childLayout=stackLayout;horizontal=1;startSize=26;horizontalStack=0;resizeParent=1;resizeParentMax=0;resizeLast=0;collapsible=1;marginBottom=0;" vertex="1" parent="1">
          <mxGeometry x="2140" y="1290" width="230" height="112" as="geometry" />
        </mxCell>
        <mxCell id="MU57wk5VXZtFuzJeOMo_-32" value="m_graphp: T_Graph*" style="text;strokeColor=none;fillColor=none;align=left;verticalAlign=top;spacingLeft=4;spacingRight=4;overflow=hidden;rotatable=0;points=[[0,0.5],[1,0.5]];portConstraint=eastwest;" vertex="1" parent="MU57wk5VXZtFuzJeOMo_-31">
          <mxGeometry y="26" width="230" height="26" as="geometry" />
        </mxCell>
        <mxCell id="MU57wk5VXZtFuzJeOMo_-33" value="m_edgeFuncp: V3EdgeFuncP" style="text;strokeColor=none;fillColor=none;align=left;verticalAlign=top;spacingLeft=4;spacingRight=4;overflow=hidden;rotatable=0;points=[[0,0.5],[1,0.5]];portConstraint=eastwest;" vertex="1" parent="MU57wk5VXZtFuzJeOMo_-31">
          <mxGeometry y="52" width="230" height="26" as="geometry" />
        </mxCell>
        <mxCell id="MU57wk5VXZtFuzJeOMo_-34" value="" style="line;strokeWidth=1;fillColor=none;align=left;verticalAlign=middle;spacingTop=-1;spacingLeft=3;spacingRight=3;rotatable=0;labelPosition=right;points=[];portConstraint=eastwest;" vertex="1" parent="MU57wk5VXZtFuzJeOMo_-31">
          <mxGeometry y="78" width="230" height="8" as="geometry" />
        </mxCell>
        <mxCell id="MU57wk5VXZtFuzJeOMo_-35" value=" followEdge(V3GraphEdge* edgep): bool" style="text;strokeColor=none;fillColor=none;align=left;verticalAlign=top;spacingLeft=4;spacingRight=4;overflow=hidden;rotatable=0;points=[[0,0.5],[1,0.5]];portConstraint=eastwest;" vertex="1" parent="MU57wk5VXZtFuzJeOMo_-31">
          <mxGeometry y="86" width="230" height="26" as="geometry" />
        </mxCell>
        <mxCell id="MU57wk5VXZtFuzJeOMo_-36" value="GraphRemoveRedundant" style="swimlane;fontStyle=1;align=center;verticalAlign=top;childLayout=stackLayout;horizontal=1;startSize=26;horizontalStack=0;resizeParent=1;resizeParentMax=0;resizeLast=0;collapsible=1;marginBottom=0;" vertex="1" parent="1">
          <mxGeometry x="1610" y="1590" width="160" height="86" as="geometry" />
        </mxCell>
        <mxCell id="MU57wk5VXZtFuzJeOMo_-37" value="+ field: type" style="text;strokeColor=none;fillColor=none;align=left;verticalAlign=top;spacingLeft=4;spacingRight=4;overflow=hidden;rotatable=0;points=[[0,0.5],[1,0.5]];portConstraint=eastwest;" vertex="1" parent="MU57wk5VXZtFuzJeOMo_-36">
          <mxGeometry y="26" width="160" height="26" as="geometry" />
        </mxCell>
        <mxCell id="MU57wk5VXZtFuzJeOMo_-38" value="" style="line;strokeWidth=1;fillColor=none;align=left;verticalAlign=middle;spacingTop=-1;spacingLeft=3;spacingRight=3;rotatable=0;labelPosition=right;points=[];portConstraint=eastwest;" vertex="1" parent="MU57wk5VXZtFuzJeOMo_-36">
          <mxGeometry y="52" width="160" height="8" as="geometry" />
        </mxCell>
        <mxCell id="MU57wk5VXZtFuzJeOMo_-39" value="+ method(type): type" style="text;strokeColor=none;fillColor=none;align=left;verticalAlign=top;spacingLeft=4;spacingRight=4;overflow=hidden;rotatable=0;points=[[0,0.5],[1,0.5]];portConstraint=eastwest;" vertex="1" parent="MU57wk5VXZtFuzJeOMo_-36">
          <mxGeometry y="60" width="160" height="26" as="geometry" />
        </mxCell>
        <mxCell id="MU57wk5VXZtFuzJeOMo_-40" value="Extends" style="endArrow=block;endSize=16;endFill=0;html=1;exitX=0.5;exitY=0;exitDx=0;exitDy=0;edgeStyle=orthogonalEdgeStyle;" edge="1" parent="1" source="MU57wk5VXZtFuzJeOMo_-36" target="MU57wk5VXZtFuzJeOMo_-31">
          <mxGeometry width="160" relative="1" as="geometry">
            <mxPoint x="2060" y="1740" as="sourcePoint" />
            <mxPoint x="2220" y="1740" as="targetPoint" />
          </mxGeometry>
        </mxCell>
        <mxCell id="MU57wk5VXZtFuzJeOMo_-41" value="GraphRemoveTransitiveEdges" style="swimlane;fontStyle=1;align=center;verticalAlign=top;childLayout=stackLayout;horizontal=1;startSize=26;horizontalStack=0;resizeParent=1;resizeParentMax=0;resizeLast=0;collapsible=1;marginBottom=0;" vertex="1" parent="1">
          <mxGeometry x="1820" y="1590" width="200" height="86" as="geometry" />
        </mxCell>
        <mxCell id="MU57wk5VXZtFuzJeOMo_-42" value="+ field: type" style="text;strokeColor=none;fillColor=none;align=left;verticalAlign=top;spacingLeft=4;spacingRight=4;overflow=hidden;rotatable=0;points=[[0,0.5],[1,0.5]];portConstraint=eastwest;" vertex="1" parent="MU57wk5VXZtFuzJeOMo_-41">
          <mxGeometry y="26" width="200" height="26" as="geometry" />
        </mxCell>
        <mxCell id="MU57wk5VXZtFuzJeOMo_-43" value="" style="line;strokeWidth=1;fillColor=none;align=left;verticalAlign=middle;spacingTop=-1;spacingLeft=3;spacingRight=3;rotatable=0;labelPosition=right;points=[];portConstraint=eastwest;" vertex="1" parent="MU57wk5VXZtFuzJeOMo_-41">
          <mxGeometry y="52" width="200" height="8" as="geometry" />
        </mxCell>
        <mxCell id="MU57wk5VXZtFuzJeOMo_-44" value="+ method(type): type" style="text;strokeColor=none;fillColor=none;align=left;verticalAlign=top;spacingLeft=4;spacingRight=4;overflow=hidden;rotatable=0;points=[[0,0.5],[1,0.5]];portConstraint=eastwest;" vertex="1" parent="MU57wk5VXZtFuzJeOMo_-41">
          <mxGeometry y="60" width="200" height="26" as="geometry" />
        </mxCell>
        <mxCell id="MU57wk5VXZtFuzJeOMo_-45" value="GraphAlgWeakly" style="swimlane;fontStyle=1;align=center;verticalAlign=top;childLayout=stackLayout;horizontal=1;startSize=26;horizontalStack=0;resizeParent=1;resizeParentMax=0;resizeLast=0;collapsible=1;marginBottom=0;" vertex="1" parent="1">
          <mxGeometry x="2060" y="1590" width="120" height="86" as="geometry" />
        </mxCell>
        <mxCell id="MU57wk5VXZtFuzJeOMo_-46" value="+ field: type" style="text;strokeColor=none;fillColor=none;align=left;verticalAlign=top;spacingLeft=4;spacingRight=4;overflow=hidden;rotatable=0;points=[[0,0.5],[1,0.5]];portConstraint=eastwest;" vertex="1" parent="MU57wk5VXZtFuzJeOMo_-45">
          <mxGeometry y="26" width="120" height="26" as="geometry" />
        </mxCell>
        <mxCell id="MU57wk5VXZtFuzJeOMo_-47" value="" style="line;strokeWidth=1;fillColor=none;align=left;verticalAlign=middle;spacingTop=-1;spacingLeft=3;spacingRight=3;rotatable=0;labelPosition=right;points=[];portConstraint=eastwest;" vertex="1" parent="MU57wk5VXZtFuzJeOMo_-45">
          <mxGeometry y="52" width="120" height="8" as="geometry" />
        </mxCell>
        <mxCell id="MU57wk5VXZtFuzJeOMo_-48" value="+ method(type): type" style="text;strokeColor=none;fillColor=none;align=left;verticalAlign=top;spacingLeft=4;spacingRight=4;overflow=hidden;rotatable=0;points=[[0,0.5],[1,0.5]];portConstraint=eastwest;" vertex="1" parent="MU57wk5VXZtFuzJeOMo_-45">
          <mxGeometry y="60" width="120" height="26" as="geometry" />
        </mxCell>
        <mxCell id="MU57wk5VXZtFuzJeOMo_-49" value="GraphAlgStrongly" style="swimlane;fontStyle=1;align=center;verticalAlign=top;childLayout=stackLayout;horizontal=1;startSize=26;horizontalStack=0;resizeParent=1;resizeParentMax=0;resizeLast=0;collapsible=1;marginBottom=0;" vertex="1" parent="1">
          <mxGeometry x="2210" y="1590" width="120" height="86" as="geometry" />
        </mxCell>
        <mxCell id="MU57wk5VXZtFuzJeOMo_-50" value="+ field: type" style="text;strokeColor=none;fillColor=none;align=left;verticalAlign=top;spacingLeft=4;spacingRight=4;overflow=hidden;rotatable=0;points=[[0,0.5],[1,0.5]];portConstraint=eastwest;" vertex="1" parent="MU57wk5VXZtFuzJeOMo_-49">
          <mxGeometry y="26" width="120" height="26" as="geometry" />
        </mxCell>
        <mxCell id="MU57wk5VXZtFuzJeOMo_-51" value="" style="line;strokeWidth=1;fillColor=none;align=left;verticalAlign=middle;spacingTop=-1;spacingLeft=3;spacingRight=3;rotatable=0;labelPosition=right;points=[];portConstraint=eastwest;" vertex="1" parent="MU57wk5VXZtFuzJeOMo_-49">
          <mxGeometry y="52" width="120" height="8" as="geometry" />
        </mxCell>
        <mxCell id="MU57wk5VXZtFuzJeOMo_-52" value="+ method(type): type" style="text;strokeColor=none;fillColor=none;align=left;verticalAlign=top;spacingLeft=4;spacingRight=4;overflow=hidden;rotatable=0;points=[[0,0.5],[1,0.5]];portConstraint=eastwest;" vertex="1" parent="MU57wk5VXZtFuzJeOMo_-49">
          <mxGeometry y="60" width="120" height="26" as="geometry" />
        </mxCell>
        <mxCell id="MU57wk5VXZtFuzJeOMo_-53" value="GraphAlgRank" style="swimlane;fontStyle=1;align=center;verticalAlign=top;childLayout=stackLayout;horizontal=1;startSize=26;horizontalStack=0;resizeParent=1;resizeParentMax=0;resizeLast=0;collapsible=1;marginBottom=0;" vertex="1" parent="1">
          <mxGeometry x="2370" y="1590" width="120" height="86" as="geometry" />
        </mxCell>
        <mxCell id="MU57wk5VXZtFuzJeOMo_-54" value="+ field: type" style="text;strokeColor=none;fillColor=none;align=left;verticalAlign=top;spacingLeft=4;spacingRight=4;overflow=hidden;rotatable=0;points=[[0,0.5],[1,0.5]];portConstraint=eastwest;" vertex="1" parent="MU57wk5VXZtFuzJeOMo_-53">
          <mxGeometry y="26" width="120" height="26" as="geometry" />
        </mxCell>
        <mxCell id="MU57wk5VXZtFuzJeOMo_-55" value="" style="line;strokeWidth=1;fillColor=none;align=left;verticalAlign=middle;spacingTop=-1;spacingLeft=3;spacingRight=3;rotatable=0;labelPosition=right;points=[];portConstraint=eastwest;" vertex="1" parent="MU57wk5VXZtFuzJeOMo_-53">
          <mxGeometry y="52" width="120" height="8" as="geometry" />
        </mxCell>
        <mxCell id="MU57wk5VXZtFuzJeOMo_-56" value="+ method(type): type" style="text;strokeColor=none;fillColor=none;align=left;verticalAlign=top;spacingLeft=4;spacingRight=4;overflow=hidden;rotatable=0;points=[[0,0.5],[1,0.5]];portConstraint=eastwest;" vertex="1" parent="MU57wk5VXZtFuzJeOMo_-53">
          <mxGeometry y="60" width="120" height="26" as="geometry" />
        </mxCell>
        <mxCell id="MU57wk5VXZtFuzJeOMo_-57" value="GraphAlgRLoops" style="swimlane;fontStyle=1;align=center;verticalAlign=top;childLayout=stackLayout;horizontal=1;startSize=26;horizontalStack=0;resizeParent=1;resizeParentMax=0;resizeLast=0;collapsible=1;marginBottom=0;" vertex="1" parent="1">
          <mxGeometry x="2530" y="1590" width="120" height="86" as="geometry" />
        </mxCell>
        <mxCell id="MU57wk5VXZtFuzJeOMo_-58" value="+ field: type" style="text;strokeColor=none;fillColor=none;align=left;verticalAlign=top;spacingLeft=4;spacingRight=4;overflow=hidden;rotatable=0;points=[[0,0.5],[1,0.5]];portConstraint=eastwest;" vertex="1" parent="MU57wk5VXZtFuzJeOMo_-57">
          <mxGeometry y="26" width="120" height="26" as="geometry" />
        </mxCell>
        <mxCell id="MU57wk5VXZtFuzJeOMo_-59" value="" style="line;strokeWidth=1;fillColor=none;align=left;verticalAlign=middle;spacingTop=-1;spacingLeft=3;spacingRight=3;rotatable=0;labelPosition=right;points=[];portConstraint=eastwest;" vertex="1" parent="MU57wk5VXZtFuzJeOMo_-57">
          <mxGeometry y="52" width="120" height="8" as="geometry" />
        </mxCell>
        <mxCell id="MU57wk5VXZtFuzJeOMo_-60" value="+ method(type): type" style="text;strokeColor=none;fillColor=none;align=left;verticalAlign=top;spacingLeft=4;spacingRight=4;overflow=hidden;rotatable=0;points=[[0,0.5],[1,0.5]];portConstraint=eastwest;" vertex="1" parent="MU57wk5VXZtFuzJeOMo_-57">
          <mxGeometry y="60" width="120" height="26" as="geometry" />
        </mxCell>
        <mxCell id="MU57wk5VXZtFuzJeOMo_-61" value="GraphAlgSubtrees" style="swimlane;fontStyle=1;align=center;verticalAlign=top;childLayout=stackLayout;horizontal=1;startSize=26;horizontalStack=0;resizeParent=1;resizeParentMax=0;resizeLast=0;collapsible=1;marginBottom=0;" vertex="1" parent="1">
          <mxGeometry x="2690" y="1590" width="120" height="86" as="geometry" />
        </mxCell>
        <mxCell id="MU57wk5VXZtFuzJeOMo_-62" value="+ field: type" style="text;strokeColor=none;fillColor=none;align=left;verticalAlign=top;spacingLeft=4;spacingRight=4;overflow=hidden;rotatable=0;points=[[0,0.5],[1,0.5]];portConstraint=eastwest;" vertex="1" parent="MU57wk5VXZtFuzJeOMo_-61">
          <mxGeometry y="26" width="120" height="26" as="geometry" />
        </mxCell>
        <mxCell id="MU57wk5VXZtFuzJeOMo_-63" value="" style="line;strokeWidth=1;fillColor=none;align=left;verticalAlign=middle;spacingTop=-1;spacingLeft=3;spacingRight=3;rotatable=0;labelPosition=right;points=[];portConstraint=eastwest;" vertex="1" parent="MU57wk5VXZtFuzJeOMo_-61">
          <mxGeometry y="52" width="120" height="8" as="geometry" />
        </mxCell>
        <mxCell id="MU57wk5VXZtFuzJeOMo_-64" value="+ method(type): type" style="text;strokeColor=none;fillColor=none;align=left;verticalAlign=top;spacingLeft=4;spacingRight=4;overflow=hidden;rotatable=0;points=[[0,0.5],[1,0.5]];portConstraint=eastwest;" vertex="1" parent="MU57wk5VXZtFuzJeOMo_-61">
          <mxGeometry y="60" width="120" height="26" as="geometry" />
        </mxCell>
        <mxCell id="MU57wk5VXZtFuzJeOMo_-65" value="Extends" style="endArrow=block;endSize=16;endFill=0;html=1;exitX=0.5;exitY=0;exitDx=0;exitDy=0;edgeStyle=orthogonalEdgeStyle;" edge="1" parent="1" source="MU57wk5VXZtFuzJeOMo_-41" target="MU57wk5VXZtFuzJeOMo_-31">
          <mxGeometry width="160" relative="1" as="geometry">
            <mxPoint x="1700" y="1600" as="sourcePoint" />
            <mxPoint x="2265" y="1412" as="targetPoint" />
          </mxGeometry>
        </mxCell>
        <mxCell id="MU57wk5VXZtFuzJeOMo_-66" value="Extends" style="endArrow=block;endSize=16;endFill=0;html=1;edgeStyle=orthogonalEdgeStyle;" edge="1" parent="1" source="MU57wk5VXZtFuzJeOMo_-53" target="MU57wk5VXZtFuzJeOMo_-31">
          <mxGeometry width="160" relative="1" as="geometry">
            <mxPoint x="1710" y="1610" as="sourcePoint" />
            <mxPoint x="2275" y="1422" as="targetPoint" />
          </mxGeometry>
        </mxCell>
        <mxCell id="MU57wk5VXZtFuzJeOMo_-67" value="Extends" style="endArrow=block;endSize=16;endFill=0;html=1;exitX=0.5;exitY=0;exitDx=0;exitDy=0;edgeStyle=orthogonalEdgeStyle;" edge="1" parent="1" source="MU57wk5VXZtFuzJeOMo_-57" target="MU57wk5VXZtFuzJeOMo_-31">
          <mxGeometry width="160" relative="1" as="geometry">
            <mxPoint x="1720" y="1620" as="sourcePoint" />
            <mxPoint x="2285" y="1432" as="targetPoint" />
          </mxGeometry>
        </mxCell>
        <mxCell id="MU57wk5VXZtFuzJeOMo_-68" value="Extends" style="endArrow=block;endSize=16;endFill=0;html=1;exitX=0.5;exitY=0;exitDx=0;exitDy=0;edgeStyle=orthogonalEdgeStyle;" edge="1" parent="1" source="MU57wk5VXZtFuzJeOMo_-61" target="MU57wk5VXZtFuzJeOMo_-31">
          <mxGeometry width="160" relative="1" as="geometry">
            <mxPoint x="1730" y="1630" as="sourcePoint" />
            <mxPoint x="2295" y="1442" as="targetPoint" />
          </mxGeometry>
        </mxCell>
        <mxCell id="MU57wk5VXZtFuzJeOMo_-69" value="Extends" style="endArrow=block;endSize=16;endFill=0;html=1;exitX=0.5;exitY=0;exitDx=0;exitDy=0;edgeStyle=orthogonalEdgeStyle;" edge="1" parent="1" source="MU57wk5VXZtFuzJeOMo_-45" target="MU57wk5VXZtFuzJeOMo_-31">
          <mxGeometry width="160" relative="1" as="geometry">
            <mxPoint x="1930" y="1600" as="sourcePoint" />
            <mxPoint x="2265" y="1412" as="targetPoint" />
          </mxGeometry>
        </mxCell>
        <mxCell id="MU57wk5VXZtFuzJeOMo_-70" value="Extends" style="endArrow=block;endSize=16;endFill=0;html=1;edgeStyle=orthogonalEdgeStyle;" edge="1" parent="1" source="MU57wk5VXZtFuzJeOMo_-49" target="MU57wk5VXZtFuzJeOMo_-31">
          <mxGeometry width="160" relative="1" as="geometry">
            <mxPoint x="1940" y="1610" as="sourcePoint" />
            <mxPoint x="2275" y="1422" as="targetPoint" />
          </mxGeometry>
        </mxCell>
      </root>
    </mxGraphModel>
  </diagram>
</mxfile>
